<svg width="1920" height="1080" viewBox="0 0 1920 1080" xmlns="http://www.w3.org/2000/svg"><path d="M1920,1080C1611.1666666666667,1103.3333333333333,309.3333333333333,1088.5,0,1080C-309.3333333333333,1071.5,42.5,1055,64,1029C85.5,1003,106.83333333333333,960.5,129,924C151.16666666666666,887.5,174.66666666666666,826,197,810C219.33333333333334,794,241.33333333333334,824.5,263,828C284.6666666666667,831.5,305.1666666666667,806.8333333333334,327,831C348.8333333333333,855.1666666666666,371.3333333333333,954.1666666666666,394,973C416.6666666666667,991.8333333333334,441,967,463,944C485,921,504.5,843.8333333333334,526,835C547.5,826.1666666666666,569.5,874.5,592,891C614.5,907.5,638.5,935.8333333333334,661,934C683.5,932.1666666666666,705,880.6666666666666,727,880C749,879.3333333333334,770.8333333333334,899.5,793,930C815.1666666666666,960.5,838,1065,860,1063C882,1061,903,957,925,918C947,879,970.1666666666666,817.5,992,829C1013.8333333333334,840.5,1034.3333333333333,949.1666666666666,1056,987C1077.6666666666667,1024.8333333333333,1099.8333333333333,1047.5,1122,1056C1144.1666666666667,1064.5,1166.5,1037.5,1189,1038C1211.5,1038.5,1235,1096.8333333333333,1257,1059C1279,1021.1666666666666,1298.8333333333333,818.6666666666666,1321,811C1343.1666666666667,803.3333333333334,1367.5,981.5,1390,1013C1412.5,1044.5,1434.5,1000.6666666666666,1456,1000C1477.5,999.3333333333334,1497.3333333333333,1013.5,1519,1009C1540.6666666666667,1004.5,1563.8333333333333,985,1586,973C1608.1666666666667,961,1629.8333333333333,930.8333333333334,1652,937C1674.1666666666667,943.1666666666666,1696.5,1020.5,1719,1010C1741.5,999.5,1764.6666666666667,885.6666666666666,1787,874C1809.3333333333333,862.3333333333334,1830.8333333333333,905.6666666666666,1853,940C1875.1666666666667,974.3333333333334,2228.8333333333335,1056.6666666666667,1920,1080C1611.1666666666667,1103.3333333333333,309.3333333333333,1088.5,0,1080" fill="#124f88"/></svg>